<svg xmlns="http://www.w3.org/2000/svg" width="18.421" height="18.839" viewBox="0 0 18.421 18.839" fill="none">
  <path d="M 3.248 18.839 C 2.323 18.839 1.628 18.746 1.167 18.562 L 0.806 14.207 C 1.433 14.52 2.117 14.679 2.858 14.679 C 3.598 14.679 4.328 14.526 5.048 14.221 C 5.769 13.915 6.323 13.291 6.713 12.347 L 7.018 11.708 L 0 0 L 5.659 0 L 9.404 7.572 L 12.816 0 L 18.421 0 L 11.179 13.703 C 10.495 15.015 9.718 16.047 8.85 16.796 C 7.98 17.545 7.069 18.073 6.117 18.379 C 5.164 18.684 4.206 18.836 3.245 18.836 L 3.248 18.839 Z" fill="currentColor" fill-rule="nonzero"/>
</svg>
